<mxfile host="app.diagrams.net" modified="2021-12-06T03:09:35.178Z" agent="5.0 (Windows)" etag="acz1dw07NzZ7TbsYC7UI" version="15.9.1" type="github">
  <diagram name="Page-1" id="efa7a0a1-bf9b-a30e-e6df-94a7791c09e9">
    <mxGraphModel dx="1594" dy="522" grid="1" gridSize="10" guides="1" tooltips="1" connect="1" arrows="1" fold="1" page="1" pageScale="1" pageWidth="826" pageHeight="1169" background="none" math="0" shadow="0">
      <root>
        <mxCell id="0" />
        <mxCell id="1" parent="0" />
        <mxCell id="sCwe5coXONJeXfBoPsaO-116" value="" style="edgeStyle=orthogonalEdgeStyle;rounded=0;orthogonalLoop=1;jettySize=auto;html=1;" edge="1" parent="1" source="19" target="sCwe5coXONJeXfBoPsaO-115">
          <mxGeometry relative="1" as="geometry" />
        </mxCell>
        <mxCell id="19" value="&lt;p style=&quot;margin: 4px 0px 0px ; text-decoration: underline&quot; align=&quot;center&quot;&gt;WeaponHitboxToWeapon&lt;/p&gt;&lt;hr align=&quot;center&quot;&gt;&lt;div align=&quot;center&quot;&gt;OnTriggerEnter2D&lt;/div&gt;&lt;div align=&quot;center&quot;&gt;&lt;br&gt;&lt;/div&gt;&lt;div align=&quot;center&quot;&gt;handles collisions and&lt;/div&gt;&lt;div align=&quot;center&quot;&gt;&amp;nbsp; passes Collider to &lt;br&gt;&lt;/div&gt;&lt;div align=&quot;center&quot;&gt;&amp;nbsp; AggressiveWeapon&lt;br&gt;&lt;/div&gt;" style="verticalAlign=top;align=center;overflow=fill;fontSize=12;fontFamily=Helvetica;html=1;strokeColor=#003366;shadow=1;fillColor=#D4E1F5;fontColor=#003366" parent="1" vertex="1">
          <mxGeometry x="200.0000000000001" y="70.00000000000044" width="160" height="120" as="geometry" />
        </mxCell>
        <mxCell id="sCwe5coXONJeXfBoPsaO-117" value="" style="edgeStyle=orthogonalEdgeStyle;rounded=0;orthogonalLoop=1;jettySize=auto;html=1;" edge="1" parent="1" source="sCwe5coXONJeXfBoPsaO-114" target="sCwe5coXONJeXfBoPsaO-115">
          <mxGeometry relative="1" as="geometry" />
        </mxCell>
        <mxCell id="sCwe5coXONJeXfBoPsaO-114" value="&lt;p style=&quot;margin: 4px 0px 0px ; text-decoration: underline&quot; align=&quot;center&quot;&gt;Weapon&lt;/p&gt;&lt;hr align=&quot;center&quot;&gt;&lt;div&gt;Core core reference&lt;/div&gt;&lt;div&gt;&lt;br&gt;&lt;/div&gt;&lt;div&gt;- shared methods / triggers&lt;/div&gt;&lt;div&gt;- handles animation counter&lt;br&gt;&lt;/div&gt;" style="verticalAlign=top;align=center;overflow=fill;fontSize=12;fontFamily=Helvetica;html=1;strokeColor=#003366;shadow=1;fillColor=#D4E1F5;fontColor=#003366" vertex="1" parent="1">
          <mxGeometry x="-40" y="260" width="160" height="100" as="geometry" />
        </mxCell>
        <mxCell id="sCwe5coXONJeXfBoPsaO-115" value="&lt;p style=&quot;margin: 4px 0px 0px ; text-decoration: underline&quot; align=&quot;center&quot;&gt;AggressiveWeapon&lt;/p&gt;&lt;hr align=&quot;center&quot;&gt;&lt;div&gt;handles AddToDetected from&lt;/div&gt;&lt;div&gt;WeaponHitboxToWeapon&lt;/div&gt;&lt;div&gt;&lt;br&gt;&lt;/div&gt;&lt;div&gt;TryHit() -&amp;gt;&lt;/div&gt;&lt;div&gt;&lt;div&gt;changes state of any colliders&lt;/div&gt;to HitStunState OR BlockStunState&lt;/div&gt;" style="verticalAlign=top;align=center;overflow=fill;fontSize=12;fontFamily=Helvetica;html=1;strokeColor=#003366;shadow=1;fillColor=#D4E1F5;fontColor=#003366" vertex="1" parent="1">
          <mxGeometry x="180" y="240" width="200" height="140" as="geometry" />
        </mxCell>
      </root>
    </mxGraphModel>
  </diagram>
</mxfile>
